<svg xmlns="http://www.w3.org/2000/svg" viewBox="0 0 400 400" width="100%" height="100%">
  <rect x="20" y="20" width="360" height="360" rx="80" fill="#F1F8E9"/>

  <path d="M 130 340 
           C 160 270, 170 210, 175 160 
           C 175 140, 160 120, 130 100 
           C 170 120, 185 140, 200 140 
           C 215 140, 230 120, 270 100 
           C 240 120, 225 140, 225 160 
           C 230 210, 240 270, 270 340 
           Z" fill="#6D4C41"/>
           
  <path d="M 175 200 Q 200 270 185 340" stroke="#5D4037" stroke-width="8" fill="none" stroke-linecap="round"/>
  <path d="M 225 200 Q 200 270 215 340" stroke="#5D4037" stroke-width="8" fill="none" stroke-linecap="round"/>

  <circle cx="140" cy="180" r="90" fill="#1B5E20"/>
  <circle cx="260" cy="180" r="90" fill="#1B5E20"/>
  <circle cx="200" cy="120" r="110" fill="#1B5E20"/>
  
  <path d="M 200 10 Q 240 60 250 100 L 150 100 Q 160 60 200 10 Z" fill="#1B5E20"/>

  <circle cx="155" cy="200" r="75" fill="#4CAF50"/>
  <circle cx="245" cy="200" r="75" fill="#4CAF50"/>
  <circle cx="200" cy="150" r="90" fill="#4CAF50"/>

  <path d="M 200 35 Q 225 80 230 110 L 170 110 Q 175 80 200 35 Z" fill="#4CAF50"/>

  <path d="M 200 140 
           C 170 110, 140 160, 180 190 
           C 195 200, 195 220, 200 240 
           C 205 220, 205 200, 220 190 
           C 260 160, 230 110, 200 140 Z" fill="#C8E6C9"/>
</svg>